<?xml version="1.0" encoding="UTF-8"?>
<svg xmlns="http://www.w3.org/2000/svg" version="1.1" width="400" height="400" viewBox="0 0 400 400"><rect x="0" y="0" width="400" height="400" fill="#fefefe"/><g transform="scale(9.756)"><g transform="translate(4,4)"><path fill-rule="evenodd" d="M8 0L8 1L10 1L10 0ZM15 0L15 1L14 1L14 2L11 2L11 4L10 4L10 3L9 3L9 2L8 2L8 5L9 5L9 6L8 6L8 7L9 7L9 8L8 8L8 9L9 9L9 10L10 10L10 9L9 9L9 8L10 8L10 7L11 7L11 8L12 8L12 7L13 7L13 9L19 9L19 10L21 10L21 11L24 11L24 14L25 14L25 13L26 13L26 12L25 12L25 11L28 11L28 12L27 12L27 14L26 14L26 15L27 15L27 16L23 16L23 15L21 15L21 14L22 14L22 13L23 13L23 12L22 12L22 13L21 13L21 14L20 14L20 11L18 11L18 12L17 12L17 11L16 11L16 12L15 12L15 10L14 10L14 11L11 11L11 13L10 13L10 12L9 12L9 13L8 13L8 11L7 11L7 10L6 10L6 9L7 9L7 8L6 8L6 9L4 9L4 8L0 8L0 9L1 9L1 12L2 12L2 11L3 11L3 10L6 10L6 11L5 11L5 12L3 12L3 13L2 13L2 15L4 15L4 16L3 16L3 18L4 18L4 19L2 19L2 16L0 16L0 17L1 17L1 18L0 18L0 19L2 19L2 20L1 20L1 21L0 21L0 22L2 22L2 23L1 23L1 24L0 24L0 25L1 25L1 24L2 24L2 25L3 25L3 24L2 24L2 23L4 23L4 25L5 25L5 23L7 23L7 24L6 24L6 25L7 25L7 24L8 24L8 26L10 26L10 27L9 27L9 29L8 29L8 33L11 33L11 32L12 32L12 31L11 31L11 29L10 29L10 28L12 28L12 29L13 29L13 28L12 28L12 26L13 26L13 27L14 27L14 30L13 30L13 33L15 33L15 31L16 31L16 33L22 33L22 32L23 32L23 33L24 33L24 32L25 32L25 33L31 33L31 32L29 32L29 31L30 31L30 29L31 29L31 26L29 26L29 25L30 25L30 23L31 23L31 24L32 24L32 25L33 25L33 24L32 24L32 23L33 23L33 21L31 21L31 20L30 20L30 18L31 18L31 19L32 19L32 20L33 20L33 19L32 19L32 18L33 18L33 16L31 16L31 14L32 14L32 13L30 13L30 12L29 12L29 10L27 10L27 9L26 9L26 8L25 8L25 9L26 9L26 10L24 10L24 9L23 9L23 10L21 10L21 9L22 9L22 8L23 8L23 5L20 5L20 3L21 3L21 2L22 2L22 4L24 4L24 7L25 7L25 3L23 3L23 2L24 2L24 1L25 1L25 0L23 0L23 1L21 1L21 0ZM16 1L16 3L12 3L12 5L10 5L10 6L9 6L9 7L10 7L10 6L11 6L11 7L12 7L12 5L13 5L13 7L14 7L14 5L15 5L15 7L16 7L16 6L17 6L17 7L18 7L18 8L19 8L19 9L21 9L21 8L22 8L22 6L21 6L21 7L20 7L20 6L19 6L19 7L18 7L18 6L17 6L17 5L19 5L19 3L18 3L18 1ZM19 1L19 2L21 2L21 1ZM17 3L17 4L18 4L18 3ZM13 4L13 5L14 5L14 4ZM28 8L28 9L30 9L30 11L31 11L31 12L32 12L32 11L33 11L33 8L32 8L32 9L31 9L31 8ZM6 11L6 12L7 12L7 11ZM12 12L12 14L9 14L9 15L10 15L10 16L8 16L8 18L9 18L9 19L8 19L8 20L9 20L9 19L10 19L10 20L12 20L12 19L11 19L11 18L12 18L12 17L14 17L14 18L13 18L13 20L14 20L14 21L15 21L15 22L14 22L14 23L11 23L11 22L12 22L12 21L11 21L11 22L9 22L9 21L6 21L6 20L7 20L7 19L6 19L6 18L7 18L7 17L5 17L5 16L4 16L4 18L5 18L5 19L6 19L6 20L5 20L5 22L4 22L4 23L5 23L5 22L8 22L8 24L9 24L9 23L11 23L11 25L12 25L12 24L13 24L13 26L14 26L14 27L15 27L15 28L16 28L16 29L17 29L17 30L18 30L18 28L19 28L19 31L18 31L18 32L19 32L19 31L20 31L20 29L21 29L21 30L22 30L22 29L21 29L21 28L20 28L20 27L21 27L21 25L22 25L22 28L23 28L23 26L24 26L24 23L25 23L25 24L27 24L27 23L28 23L28 24L29 24L29 23L30 23L30 22L31 22L31 21L30 21L30 20L29 20L29 18L27 18L27 19L28 19L28 20L26 20L26 19L25 19L25 18L23 18L23 19L25 19L25 20L22 20L22 18L20 18L20 17L21 17L21 15L20 15L20 16L19 16L19 14L18 14L18 15L17 15L17 14L15 14L15 12ZM18 12L18 13L19 13L19 12ZM3 13L3 14L4 14L4 15L6 15L6 16L7 16L7 15L8 15L8 13L6 13L6 14L5 14L5 13ZM13 13L13 14L12 14L12 16L11 16L11 17L10 17L10 18L11 18L11 17L12 17L12 16L14 16L14 15L15 15L15 14L14 14L14 13ZM28 13L28 14L27 14L27 15L28 15L28 14L29 14L29 16L30 16L30 14L29 14L29 13ZM6 14L6 15L7 15L7 14ZM13 14L13 15L14 15L14 14ZM16 15L16 16L15 16L15 19L16 19L16 16L17 16L17 15ZM18 16L18 19L17 19L17 20L15 20L15 21L16 21L16 23L15 23L15 24L14 24L14 26L18 26L18 24L19 24L19 27L20 27L20 24L21 24L21 23L24 23L24 21L23 21L23 22L21 22L21 21L22 21L22 20L21 20L21 19L20 19L20 20L19 20L19 16ZM22 16L22 17L23 17L23 16ZM31 17L31 18L32 18L32 17ZM3 20L3 21L4 21L4 20ZM17 21L17 22L19 22L19 24L20 24L20 23L21 23L21 22L19 22L19 21ZM26 21L26 22L25 22L25 23L27 23L27 21ZM29 21L29 22L28 22L28 23L29 23L29 22L30 22L30 21ZM17 23L17 24L18 24L18 23ZM22 24L22 25L23 25L23 24ZM25 25L25 28L28 28L28 25ZM26 26L26 27L27 27L27 26ZM16 27L16 28L17 28L17 27ZM32 27L32 28L33 28L33 27ZM29 28L29 29L24 29L24 30L23 30L23 31L24 31L24 30L28 30L28 31L29 31L29 29L30 29L30 28ZM32 29L32 30L33 30L33 29ZM9 30L9 32L10 32L10 30ZM21 31L21 32L22 32L22 31ZM25 31L25 32L26 32L26 31ZM32 31L32 32L33 32L33 31ZM0 0L0 7L7 7L7 0ZM1 1L1 6L6 6L6 1ZM2 2L2 5L5 5L5 2ZM26 0L26 7L33 7L33 0ZM27 1L27 6L32 6L32 1ZM28 2L28 5L31 5L31 2ZM0 26L0 33L7 33L7 26ZM1 27L1 32L6 32L6 27ZM2 28L2 31L5 31L5 28Z" fill="#000000"/></g></g></svg>
